<mxfile host="app.diagrams.net" modified="2024-01-18T07:09:10.981Z" agent="Mozilla/5.0 (Macintosh; Intel Mac OS X 10_15_7) AppleWebKit/537.36 (KHTML, like Gecko) Chrome/120.0.0.0 Safari/537.36" etag="ABz24hgA5EaGPPQMNrfF" version="22.1.21" type="github">
  <diagram id="C5RBs43oDa-KdzZeNtuy" name="Page-1">
    <mxGraphModel dx="1194" dy="606" grid="1" gridSize="10" guides="1" tooltips="1" connect="1" arrows="1" fold="1" page="1" pageScale="1" pageWidth="827" pageHeight="1169" math="0" shadow="0">
      <root>
        <mxCell id="WIyWlLk6GJQsqaUBKTNV-0" />
        <mxCell id="WIyWlLk6GJQsqaUBKTNV-1" parent="WIyWlLk6GJQsqaUBKTNV-0" />
        <mxCell id="WIyWlLk6GJQsqaUBKTNV-6" value="Is there a dispute?" style="rhombus;whiteSpace=wrap;html=1;shadow=0;fontFamily=Helvetica;fontSize=12;align=center;strokeWidth=1;spacing=6;spacingTop=-4;" parent="WIyWlLk6GJQsqaUBKTNV-1" vertex="1">
          <mxGeometry x="390" y="90" width="100" height="80" as="geometry" />
        </mxCell>
        <mxCell id="WIyWlLk6GJQsqaUBKTNV-7" value="Release full deposit" style="rounded=1;whiteSpace=wrap;html=1;fontSize=12;glass=0;strokeWidth=1;shadow=0;" parent="WIyWlLk6GJQsqaUBKTNV-1" vertex="1">
          <mxGeometry x="580" y="200" width="120" height="40" as="geometry" />
        </mxCell>
        <mxCell id="jbOAAi3hwFv8AgqYMutM-2" value="Yes" style="rounded=0;whiteSpace=wrap;html=1;" parent="WIyWlLk6GJQsqaUBKTNV-1" vertex="1">
          <mxGeometry x="200" y="115" width="80" height="30" as="geometry" />
        </mxCell>
        <mxCell id="jbOAAi3hwFv8AgqYMutM-4" value="No" style="rounded=0;whiteSpace=wrap;html=1;" parent="WIyWlLk6GJQsqaUBKTNV-1" vertex="1">
          <mxGeometry x="600" y="115" width="80" height="30" as="geometry" />
        </mxCell>
        <mxCell id="jbOAAi3hwFv8AgqYMutM-5" value="" style="endArrow=classic;html=1;rounded=0;" parent="WIyWlLk6GJQsqaUBKTNV-1" edge="1">
          <mxGeometry width="50" height="50" relative="1" as="geometry">
            <mxPoint x="440" y="50" as="sourcePoint" />
            <mxPoint x="440" y="90" as="targetPoint" />
          </mxGeometry>
        </mxCell>
        <mxCell id="jbOAAi3hwFv8AgqYMutM-6" value="" style="endArrow=classic;html=1;rounded=0;exitX=0;exitY=0.5;exitDx=0;exitDy=0;entryX=1;entryY=0.5;entryDx=0;entryDy=0;" parent="WIyWlLk6GJQsqaUBKTNV-1" source="WIyWlLk6GJQsqaUBKTNV-6" target="jbOAAi3hwFv8AgqYMutM-2" edge="1">
          <mxGeometry width="50" height="50" relative="1" as="geometry">
            <mxPoint x="390" y="340" as="sourcePoint" />
            <mxPoint x="440" y="290" as="targetPoint" />
          </mxGeometry>
        </mxCell>
        <mxCell id="jbOAAi3hwFv8AgqYMutM-7" value="" style="endArrow=classic;html=1;rounded=0;exitX=1;exitY=0.5;exitDx=0;exitDy=0;entryX=0;entryY=0.5;entryDx=0;entryDy=0;" parent="WIyWlLk6GJQsqaUBKTNV-1" source="WIyWlLk6GJQsqaUBKTNV-6" target="jbOAAi3hwFv8AgqYMutM-4" edge="1">
          <mxGeometry width="50" height="50" relative="1" as="geometry">
            <mxPoint x="390" y="340" as="sourcePoint" />
            <mxPoint x="440" y="290" as="targetPoint" />
          </mxGeometry>
        </mxCell>
        <mxCell id="jbOAAi3hwFv8AgqYMutM-8" value="" style="endArrow=classic;html=1;rounded=0;exitX=0.5;exitY=1;exitDx=0;exitDy=0;entryX=0.5;entryY=0;entryDx=0;entryDy=0;" parent="WIyWlLk6GJQsqaUBKTNV-1" source="jbOAAi3hwFv8AgqYMutM-4" target="WIyWlLk6GJQsqaUBKTNV-7" edge="1">
          <mxGeometry width="50" height="50" relative="1" as="geometry">
            <mxPoint x="390" y="340" as="sourcePoint" />
            <mxPoint x="440" y="290" as="targetPoint" />
          </mxGeometry>
        </mxCell>
        <mxCell id="jbOAAi3hwFv8AgqYMutM-9" value="Dispute resolution possible outcomes" style="rhombus;whiteSpace=wrap;html=1;" parent="WIyWlLk6GJQsqaUBKTNV-1" vertex="1">
          <mxGeometry x="170" y="200" width="140" height="130" as="geometry" />
        </mxCell>
        <mxCell id="jbOAAi3hwFv8AgqYMutM-10" value="" style="endArrow=classic;html=1;rounded=0;exitX=0.5;exitY=1;exitDx=0;exitDy=0;entryX=0.5;entryY=0;entryDx=0;entryDy=0;" parent="WIyWlLk6GJQsqaUBKTNV-1" source="jbOAAi3hwFv8AgqYMutM-2" target="jbOAAi3hwFv8AgqYMutM-9" edge="1">
          <mxGeometry width="50" height="50" relative="1" as="geometry">
            <mxPoint x="390" y="340" as="sourcePoint" />
            <mxPoint x="440" y="290" as="targetPoint" />
          </mxGeometry>
        </mxCell>
        <mxCell id="jbOAAi3hwFv8AgqYMutM-11" value="" style="endArrow=none;html=1;rounded=0;exitX=0;exitY=0.5;exitDx=0;exitDy=0;" parent="WIyWlLk6GJQsqaUBKTNV-1" source="jbOAAi3hwFv8AgqYMutM-9" edge="1">
          <mxGeometry width="50" height="50" relative="1" as="geometry">
            <mxPoint x="390" y="340" as="sourcePoint" />
            <mxPoint x="80" y="265" as="targetPoint" />
          </mxGeometry>
        </mxCell>
        <mxCell id="jbOAAi3hwFv8AgqYMutM-14" value="" style="endArrow=classic;html=1;rounded=0;" parent="WIyWlLk6GJQsqaUBKTNV-1" edge="1">
          <mxGeometry relative="1" as="geometry">
            <mxPoint x="80" y="265" as="sourcePoint" />
            <mxPoint x="80" y="400" as="targetPoint" />
          </mxGeometry>
        </mxCell>
        <mxCell id="jbOAAi3hwFv8AgqYMutM-15" value="Full Write Off" style="edgeLabel;resizable=0;html=1;align=center;verticalAlign=middle;" parent="jbOAAi3hwFv8AgqYMutM-14" connectable="0" vertex="1">
          <mxGeometry relative="1" as="geometry">
            <mxPoint y="18" as="offset" />
          </mxGeometry>
        </mxCell>
        <mxCell id="jbOAAi3hwFv8AgqYMutM-16" value="" style="endArrow=classic;html=1;rounded=0;exitX=0.5;exitY=1;exitDx=0;exitDy=0;entryX=0.5;entryY=0;entryDx=0;entryDy=0;" parent="WIyWlLk6GJQsqaUBKTNV-1" source="jbOAAi3hwFv8AgqYMutM-9" target="jbOAAi3hwFv8AgqYMutM-23" edge="1">
          <mxGeometry relative="1" as="geometry">
            <mxPoint x="120" y="300" as="sourcePoint" />
            <mxPoint x="240" y="400" as="targetPoint" />
          </mxGeometry>
        </mxCell>
        <mxCell id="jbOAAi3hwFv8AgqYMutM-17" value="Partial Write Off" style="edgeLabel;resizable=0;html=1;align=center;verticalAlign=middle;" parent="jbOAAi3hwFv8AgqYMutM-16" connectable="0" vertex="1">
          <mxGeometry relative="1" as="geometry">
            <mxPoint y="-15" as="offset" />
          </mxGeometry>
        </mxCell>
        <mxCell id="jbOAAi3hwFv8AgqYMutM-18" value="" style="endArrow=none;html=1;rounded=0;" parent="WIyWlLk6GJQsqaUBKTNV-1" edge="1">
          <mxGeometry width="50" height="50" relative="1" as="geometry">
            <mxPoint x="440" y="265" as="sourcePoint" />
            <mxPoint x="310" y="264.75" as="targetPoint" />
          </mxGeometry>
        </mxCell>
        <mxCell id="jbOAAi3hwFv8AgqYMutM-19" value="" style="endArrow=classic;html=1;rounded=0;" parent="WIyWlLk6GJQsqaUBKTNV-1" edge="1">
          <mxGeometry relative="1" as="geometry">
            <mxPoint x="439.64" y="265" as="sourcePoint" />
            <mxPoint x="439.64" y="400" as="targetPoint" />
          </mxGeometry>
        </mxCell>
        <mxCell id="jbOAAi3hwFv8AgqYMutM-20" value="No resolution/agreement" style="edgeLabel;resizable=0;html=1;align=center;verticalAlign=middle;" parent="jbOAAi3hwFv8AgqYMutM-19" connectable="0" vertex="1">
          <mxGeometry relative="1" as="geometry">
            <mxPoint y="18" as="offset" />
          </mxGeometry>
        </mxCell>
        <mxCell id="jbOAAi3hwFv8AgqYMutM-21" value="Full Deposit repayment.&lt;br&gt;ie. Sold item/svs" style="rounded=1;whiteSpace=wrap;html=1;fontSize=12;glass=0;strokeWidth=1;shadow=0;" parent="WIyWlLk6GJQsqaUBKTNV-1" vertex="1">
          <mxGeometry x="10" y="400" width="140" height="50" as="geometry" />
        </mxCell>
        <mxCell id="jbOAAi3hwFv8AgqYMutM-23" value="Release agreed deposit and return balance" style="rounded=1;whiteSpace=wrap;html=1;fontSize=12;glass=0;strokeWidth=1;shadow=0;" parent="WIyWlLk6GJQsqaUBKTNV-1" vertex="1">
          <mxGeometry x="170" y="400" width="140" height="50" as="geometry" />
        </mxCell>
        <mxCell id="jbOAAi3hwFv8AgqYMutM-24" value="Parties to mitigate to settlement (meetup or online" style="rounded=0;whiteSpace=wrap;html=1;" parent="WIyWlLk6GJQsqaUBKTNV-1" vertex="1">
          <mxGeometry x="380" y="400" width="120" height="50" as="geometry" />
        </mxCell>
        <mxCell id="jbOAAi3hwFv8AgqYMutM-42" value="Settlement agreed before depletion?" style="rhombus;whiteSpace=wrap;html=1;" parent="WIyWlLk6GJQsqaUBKTNV-1" vertex="1">
          <mxGeometry x="190" y="590" width="100" height="100" as="geometry" />
        </mxCell>
        <mxCell id="jbOAAi3hwFv8AgqYMutM-48" value="" style="endArrow=classic;html=1;rounded=0;entryX=1;entryY=0.5;entryDx=0;entryDy=0;" parent="WIyWlLk6GJQsqaUBKTNV-1" target="jbOAAi3hwFv8AgqYMutM-42" edge="1">
          <mxGeometry width="50" height="50" relative="1" as="geometry">
            <mxPoint x="440" y="640" as="sourcePoint" />
            <mxPoint x="330" y="480" as="targetPoint" />
          </mxGeometry>
        </mxCell>
        <mxCell id="jbOAAi3hwFv8AgqYMutM-49" value="" style="endArrow=classic;html=1;rounded=0;exitX=0.5;exitY=0;exitDx=0;exitDy=0;entryX=0.5;entryY=1;entryDx=0;entryDy=0;" parent="WIyWlLk6GJQsqaUBKTNV-1" source="jbOAAi3hwFv8AgqYMutM-42" target="jbOAAi3hwFv8AgqYMutM-23" edge="1">
          <mxGeometry relative="1" as="geometry">
            <mxPoint x="250" y="500" as="sourcePoint" />
            <mxPoint x="350" y="500" as="targetPoint" />
          </mxGeometry>
        </mxCell>
        <mxCell id="jbOAAi3hwFv8AgqYMutM-50" value="Yes" style="edgeLabel;resizable=0;html=1;align=center;verticalAlign=middle;" parent="jbOAAi3hwFv8AgqYMutM-49" connectable="0" vertex="1">
          <mxGeometry relative="1" as="geometry" />
        </mxCell>
        <mxCell id="jbOAAi3hwFv8AgqYMutM-51" value="" style="endArrow=classic;html=1;rounded=0;entryX=0.5;entryY=1;entryDx=0;entryDy=0;" parent="WIyWlLk6GJQsqaUBKTNV-1" target="jbOAAi3hwFv8AgqYMutM-21" edge="1">
          <mxGeometry relative="1" as="geometry">
            <mxPoint x="80" y="640" as="sourcePoint" />
            <mxPoint x="350" y="500" as="targetPoint" />
          </mxGeometry>
        </mxCell>
        <mxCell id="jbOAAi3hwFv8AgqYMutM-52" value="No" style="edgeLabel;resizable=0;html=1;align=center;verticalAlign=middle;" parent="jbOAAi3hwFv8AgqYMutM-51" connectable="0" vertex="1">
          <mxGeometry relative="1" as="geometry">
            <mxPoint y="-25" as="offset" />
          </mxGeometry>
        </mxCell>
        <mxCell id="jbOAAi3hwFv8AgqYMutM-54" value="" style="endArrow=none;html=1;rounded=0;entryX=0;entryY=0.5;entryDx=0;entryDy=0;" parent="WIyWlLk6GJQsqaUBKTNV-1" target="jbOAAi3hwFv8AgqYMutM-42" edge="1">
          <mxGeometry width="50" height="50" relative="1" as="geometry">
            <mxPoint x="80" y="640" as="sourcePoint" />
            <mxPoint x="330" y="480" as="targetPoint" />
          </mxGeometry>
        </mxCell>
        <mxCell id="jbOAAi3hwFv8AgqYMutM-55" value="Deposit is depleted at day rental rate" style="rounded=0;whiteSpace=wrap;html=1;" parent="WIyWlLk6GJQsqaUBKTNV-1" vertex="1">
          <mxGeometry x="380" y="490" width="120" height="60" as="geometry" />
        </mxCell>
        <mxCell id="jbOAAi3hwFv8AgqYMutM-56" value="" style="endArrow=none;html=1;rounded=0;exitX=0.5;exitY=1;exitDx=0;exitDy=0;entryX=0.5;entryY=0;entryDx=0;entryDy=0;" parent="WIyWlLk6GJQsqaUBKTNV-1" source="jbOAAi3hwFv8AgqYMutM-24" target="jbOAAi3hwFv8AgqYMutM-55" edge="1">
          <mxGeometry width="50" height="50" relative="1" as="geometry">
            <mxPoint x="440" y="400" as="sourcePoint" />
            <mxPoint x="490" y="350" as="targetPoint" />
          </mxGeometry>
        </mxCell>
        <mxCell id="jbOAAi3hwFv8AgqYMutM-57" value="" style="endArrow=none;html=1;rounded=0;exitX=0.5;exitY=1;exitDx=0;exitDy=0;" parent="WIyWlLk6GJQsqaUBKTNV-1" source="jbOAAi3hwFv8AgqYMutM-55" edge="1">
          <mxGeometry width="50" height="50" relative="1" as="geometry">
            <mxPoint x="440" y="400" as="sourcePoint" />
            <mxPoint x="440" y="640" as="targetPoint" />
          </mxGeometry>
        </mxCell>
        <mxCell id="jbOAAi3hwFv8AgqYMutM-64" value="" style="group" parent="WIyWlLk6GJQsqaUBKTNV-1" vertex="1" connectable="0">
          <mxGeometry x="570" y="310" width="230" height="340" as="geometry" />
        </mxCell>
        <mxCell id="jbOAAi3hwFv8AgqYMutM-59" value="Deposit Agreement&lt;br&gt;Renter" style="text;strokeColor=none;fillColor=none;html=1;whiteSpace=wrap;verticalAlign=middle;overflow=hidden;fontStyle=5;align=center;" parent="jbOAAi3hwFv8AgqYMutM-64" vertex="1">
          <mxGeometry x="7.5" width="150" height="70" as="geometry" />
        </mxCell>
        <mxCell id="jbOAAi3hwFv8AgqYMutM-60" value="Deposit Agreement&lt;br&gt;Rentee" style="text;strokeColor=none;fillColor=none;html=1;whiteSpace=wrap;verticalAlign=middle;overflow=hidden;fontStyle=5;align=center;" parent="jbOAAi3hwFv8AgqYMutM-64" vertex="1">
          <mxGeometry x="7.5" y="150" width="150" height="70" as="geometry" />
        </mxCell>
        <mxCell id="jbOAAi3hwFv8AgqYMutM-62" value="&lt;ol&gt;&lt;li&gt;Highest price you will buy this item/svs in case of full write down.&amp;nbsp;&lt;/li&gt;&lt;li&gt;ie. broken/consumed&lt;/li&gt;&lt;/ol&gt;" style="text;strokeColor=none;fillColor=none;html=1;whiteSpace=wrap;verticalAlign=middle;overflow=hidden;" parent="jbOAAi3hwFv8AgqYMutM-64" vertex="1">
          <mxGeometry y="20" width="165" height="160" as="geometry" />
        </mxCell>
        <mxCell id="jbOAAi3hwFv8AgqYMutM-63" value="&lt;ol&gt;&lt;li&gt;Highest price you are willing to sell off the item in case of full write down.&lt;/li&gt;&lt;li&gt;ie. got rid of item / sold it.&lt;/li&gt;&lt;/ol&gt;" style="text;strokeColor=none;fillColor=none;html=1;whiteSpace=wrap;verticalAlign=middle;overflow=hidden;" parent="jbOAAi3hwFv8AgqYMutM-64" vertex="1">
          <mxGeometry y="175" width="167.5" height="165" as="geometry" />
        </mxCell>
        <mxCell id="jbOAAi3hwFv8AgqYMutM-66" value="In case of dispute, Deposit will be depleted at day rate rental. This incentivizes both parties to come to settlement&amp;nbsp;early.&lt;p style=&quot;margin: 0px; font-variant-numeric: normal; font-variant-east-asian: normal; font-variant-alternates: normal; font-kerning: auto; font-optical-sizing: auto; font-feature-settings: normal; font-variation-settings: normal; font-variant-position: normal; font-stretch: normal; font-size: 13px; line-height: normal; font-family: &amp;quot;Helvetica Neue&amp;quot;; min-height: 15px;&quot; class=&quot;p2&quot;&gt;&lt;br&gt;&lt;/p&gt;Question: Does this make it easier for scammer to get rid of their items by refusing to come to agreement, forcing the renter&#39;s hand to buy item at said price?&lt;br&gt;- This is where photos are important for functionality and arbitration.&lt;br&gt;&amp;nbsp;&lt;br&gt;This also highlights the importance of setting and agreeing the Deposit amount.&amp;nbsp;&lt;br&gt;This achieves things on 2 ends:&lt;br&gt;1. Renter and Renter coming to agreement in worst case scenario&lt;br&gt;2. Negotiations (on internal chat engine) means returning users, which can translate to higher traffic flow and hence, ad revenue." style="text;html=1;strokeColor=none;fillColor=none;align=left;verticalAlign=middle;whiteSpace=wrap;rounded=0;" parent="WIyWlLk6GJQsqaUBKTNV-1" vertex="1">
          <mxGeometry x="130" y="750" width="610" height="140" as="geometry" />
        </mxCell>
        <mxCell id="TJOGVVRYHEbLn0Pwdq9O-1" value="Dispute Handling" style="ellipse;whiteSpace=wrap;html=1;" vertex="1" parent="WIyWlLk6GJQsqaUBKTNV-1">
          <mxGeometry x="390" width="100" height="60" as="geometry" />
        </mxCell>
      </root>
    </mxGraphModel>
  </diagram>
</mxfile>
